# xmcd
# 
# Track frame offsets:
#     150
#     10260
#     28535
#     63755
#     96080
#     110480
#     125307
#     140580
# 
# Disc length: 2576
# 
# Revision: 25
# Processed by: cddbd v1.5.2PL0 Copyright (c) Steve Scherf et al.
# Submitted via: fre:ac v1.0.31
# 
DISCID=610a0e08
DTITLE=The Doors - The Best Of The Doors
DYEAR=1985
DGENRE=Rock
TTITLE0=Hello, I Love You
TTITLE1=Roadhouse Blues
TTITLE2=L.A. Woman
TTITLE3=Riders on the Storm
TTITLE4=Touch Me
TTITLE5=Love Her Madly
TTITLE6=The Unknown Soldier
TTITLE7=The End
EXTD=
EXTT0=
EXTT1=
EXTT2=
EXTT3=
EXTT4=
EXTT5=
EXTT6=
EXTT7=
PLAYORDER=
